<svg xmlns="http://www.w3.org/2000/svg" viewBox="0 0 64 64">
  <rect width="64" height="64" rx="14" fill="#070E13"/>
  <!-- QR corner brackets -->
  <path d="M10 22V14a4 4 0 0 1 4-4h8" fill="none" stroke="#2DD4BF" stroke-width="5" stroke-linecap="round"/>
  <path d="M54 22v-8a4 4 0 0 0-4-4h-8" fill="none" stroke="#2DD4BF" stroke-width="5" stroke-linecap="round"/>
  <path d="M10 42v8a4 4 0 0 0 4 4h8" fill="none" stroke="#2DD4BF" stroke-width="5" stroke-linecap="round"/>
  <path d="M54 42v8a4 4 0 0 1-4 4h-8" fill="none" stroke="#2DD4BF" stroke-width="5" stroke-linecap="round"/>
  <!-- QR pixels -->
  <rect x="22" y="22" width="8" height="8" rx="2" fill="#EAF6F2"/>
  <rect x="34" y="22" width="8" height="8" rx="2" fill="#2DD4BF"/>
  <rect x="22" y="34" width="8" height="8" rx="2" fill="#2DD4BF"/>
  <rect x="34" y="34" width="8" height="8" rx="2" fill="#EAF6F2"/>
  <!-- Scan line -->
  <rect x="14" y="30" width="36" height="3" rx="1.5" fill="#2DD4BF" opacity="0.85"/>
</svg>
